<svg width="201" height="200" viewBox="0 0 201 200" fill="none" xmlns="http://www.w3.org/2000/svg">
<g clip-path="url(#clip0_317_1330)">
<path d="M100.5 0C73.9844 0 48.5312 10.5422 29.7969 29.2891C11.0432 48.0434 0.505195 73.4778 0.5 100C0.5 126.511 11.0469 151.964 29.7969 170.711C48.5312 189.458 73.9844 200 100.5 200C127.016 200 152.469 189.458 171.203 170.711C189.953 151.964 200.5 126.511 200.5 100C200.5 73.4891 189.953 48.0359 171.203 29.2891C152.469 10.5422 127.016 0 100.5 0Z" fill="url(#paint0_linear_317_1330)"/>
<path d="M45.766 98.9439C74.9223 86.2439 94.3598 77.8704 104.079 73.8251C131.86 62.2735 137.625 60.2673 141.391 60.1993C142.219 60.186 144.063 60.3907 145.266 61.3634C146.266 62.1837 146.547 63.2931 146.688 64.072C146.813 64.8501 146.985 66.6235 146.844 68.0079C145.344 83.8204 138.829 122.192 135.516 139.903C134.125 147.397 131.36 149.909 128.688 150.155C122.875 150.689 118.469 146.317 112.844 142.631C104.047 136.861 99.0785 133.27 90.5316 127.641C80.6566 121.134 87.0629 117.558 92.6879 111.714C94.1566 110.184 119.75 86.911 120.235 84.8001C120.297 84.536 120.36 83.5517 119.766 83.0329C119.188 82.5126 118.329 82.6907 117.704 82.8314C116.813 83.0314 102.766 92.3251 75.516 110.711C71.5316 113.452 67.9223 114.788 64.6723 114.717C61.1098 114.641 54.2348 112.699 49.1254 111.039C42.8754 109.003 37.891 107.927 38.3285 104.469C38.5473 102.669 41.0316 100.827 45.766 98.9439Z" fill="white"/>
</g>
<defs>
<linearGradient id="paint0_linear_317_1330" x1="10000.5" y1="0" x2="10000.5" y2="20000" gradientUnits="userSpaceOnUse">
<stop stop-color="#2AABEE"/>
<stop offset="1" stop-color="#229ED9"/>
</linearGradient>
<clipPath id="clip0_317_1330">
<rect width="200" height="200" fill="white" transform="translate(0.5)"/>
</clipPath>
</defs>
</svg>
